<?xml version="1.0" encoding="UTF-8"?>
<svg width="277px" height="53px" viewBox="0 0 277 53" version="1.1" xmlns="http://www.w3.org/2000/svg" xmlns:xlink="http://www.w3.org/1999/xlink">
    <title>5f43f6318a90f032ff8808c6_Playvox - An Agent Optimization Suite to evaluate, improve &amp; inspire agent performance</title>
    <g id="Page-1" stroke="none" stroke-width="1" fill="none" fill-rule="evenodd">
        <g id="5f43f6318a90f032ff8808c6_Playvox---An-Agent-Optimization-Suite-to-evaluate,-improve-&amp;-inspire-agent-performance" fill="#12B981" fill-rule="nonzero">
            <polygon id="XMLID_12250_" points="55.4666667 0 32.064 38.992403 13.0133333 7.41703319 31.8293333 7.41703319 27.0933333 15.1943223 31.36 22.2510996 44.8213333 0 0 0 32 53 64 0"></polygon>
            <g id="Group" transform="translate(80.042503, 2.000000)">
                <path d="M25.6503776,13.0928571 C24.3540453,11.7857143 22.8026969,10.7571429 20.9750809,10.0071429 C19.2324703,9.3 17.383603,8.93571429 15.4072276,8.93571429 C13.3245955,8.93571429 11.4969795,9.3 9.90312837,10.05 C8.37303128,10.7571429 7.35296656,11.6571429 6.84293419,12.75 L6.84293419,9.64285714 L-1.52655666e-15,9.64285714 L-1.52655666e-15,49.2857143 L7.07669903,49.2857143 L7.07669903,35.5928571 C7.58673139,36.6857143 8.60679611,37.5857143 10.0731392,38.2928571 C11.6244876,39.0428571 13.4308522,39.4071429 15.4709817,39.4071429 C17.319849,39.4071429 19.1474649,39.0428571 20.9325782,38.2928571 C22.6326861,37.5857143 24.1840345,36.5357143 25.5441208,35.1428571 C26.8829558,33.7928571 27.9455232,32.1857143 28.7105717,30.3214286 C29.4968716,28.4785714 29.8793959,26.4214286 29.8793959,24.15 C29.8793959,21.9 29.6031284,19.8 28.8168285,17.9142857 C28.0305286,16.05 26.9892125,14.4214286 25.6503776,13.0928571 Z M22.1439051,27.2785714 C21.7401294,28.2428571 21.1875944,29.0785714 20.4650485,29.7428571 C19.8062567,30.3857143 18.9349515,30.9 17.8511327,31.3071429 C16.894822,31.6714286 15.7685005,31.8642857 14.514671,31.8642857 C12.7295577,31.8642857 11.1569579,31.5 9.77562028,30.7928571 C8.39428263,30.0857143 7.50172599,29.1857143 7.05544768,28.0928571 L7.05544768,20.4 C7.50172599,19.3071429 8.41553398,18.4071429 9.77562028,17.7 C11.1569579,16.9928571 12.7295577,16.6285714 14.514671,16.6285714 C15.7685005,16.6285714 16.894822,16.8214286 17.8511327,17.1857143 C18.9349515,17.5928571 19.8062567,18.1285714 20.4650485,18.75 C21.2088457,19.4142857 21.7613808,20.2285714 22.1439051,21.1714286 C22.5476807,22.1571429 22.7389428,23.1642857 22.7601942,24.1714286 C22.7389428,25.2857143 22.5264293,26.2928571 22.1439051,27.2785714 Z" id="Shape"></path>
                <rect id="Rectangle" x="35.4685005" y="0" width="7.07669903" height="38.4428571"></rect>
                <path d="M69.7469256,11.7857143 C68.6418554,10.8428571 67.3030205,10.1142857 65.7304207,9.6 C64.0940669,9.08571429 62.3727077,8.80714286 60.5450917,8.80714286 C59.4400216,8.80714286 58.3137001,8.91428571 57.20863,9.15 C56.0610572,9.36428571 55.0197411,9.70714286 54.0846818,10.1571429 C53.1496224,10.6071429 52.2783171,11.1428571 51.4707659,11.7857143 C50.6632147,12.4285714 50.0044229,13.1571429 49.5156419,13.9714286 L49.5793959,13.9714286 L51.3007551,19.8 C52.1083064,18.75 53.2771305,17.85 54.7434736,17.1 C56.1460626,16.3928571 57.7824164,16.0285714 59.6312837,16.0285714 C61.7564186,16.0285714 63.3502697,16.5428571 64.4765912,17.55 C65.5816613,18.5571429 66.1554477,19.9071429 66.1554477,21.6 L66.1554477,22.3928571 C65.7941748,21.9 65.0078749,21.4285714 63.8177993,21 C62.6277238,20.55 61.1188781,20.3357143 59.3125135,20.3357143 C57.9311758,20.3357143 56.5498382,20.55 55.1472492,20.9571429 C53.8084142,21.3214286 52.5970874,21.9214286 51.53452,22.7571429 C50.4932039,23.55 49.6644013,24.5357143 49.0268608,25.7357143 C48.3893204,26.9357143 48.0705502,28.2857143 48.0705502,29.7857143 C48.0705502,31.2 48.3255663,32.5285714 48.8568501,33.7714286 C49.3668824,34.9714286 50.0894283,35.9571429 51.0244876,36.75 C51.9807983,37.5428571 53.1071197,38.1428571 54.3609493,38.5928571 C55.6147789,39.0428571 57.0173679,39.2571429 58.5262136,39.2571429 C60.0563107,39.2571429 61.5651564,38.9785714 63.0952535,38.4214286 C64.5828479,37.8642857 65.687918,37.0285714 66.4317152,35.9571429 L66.4317152,38.5714286 L73.2746494,38.5714286 L73.2746494,20.3142857 C73.2746494,18.5142857 72.9558792,16.8642857 72.3183387,15.3857143 C71.7658037,13.9714286 70.8944984,12.7714286 69.7469256,11.7857143 Z M66.2404531,30.2571429 C65.9004315,30.9214286 65.2416397,31.5 64.2428263,31.95 C63.2440129,32.4 62.0964401,32.6142857 60.8001079,32.6142857 C58.9724919,32.6142857 57.6124056,32.3357143 56.6773463,31.7785714 C55.7210356,31.2214286 55.2322546,30.45 55.2322546,29.4857143 C55.2322546,28.5214286 55.6997842,27.7285714 56.6135922,27.1285714 C57.5486516,26.5285714 58.9299892,26.2285714 60.7788565,26.2285714 C62.0326861,26.2285714 63.1802589,26.4428571 64.221575,26.85 C65.262891,27.2571429 65.9004315,27.7071429 66.176699,28.2 L66.2404531,28.2 L66.2404531,30.2571429 L66.2404531,30.2571429 Z" id="Shape"></path>
                <path d="M161.892772,13.2428571 C160.490183,11.8928571 158.875081,10.8214286 157.047465,10.05 C155.219849,9.25714286 153.285976,8.87142857 151.203344,8.87142857 C149.120712,8.87142857 147.186839,9.25714286 145.359223,10.05 C143.531607,10.8428571 141.916505,11.8928571 140.513916,13.2428571 C139.132578,14.5928571 138.027508,16.2 137.177454,18.0642857 C136.369903,19.8642857 135.944876,21.8785714 135.944876,24.1285714 C135.944876,26.3785714 136.348651,28.3928571 137.177454,30.1928571 C138.027508,32.0571429 139.153829,33.6642857 140.513916,35.0142857 C141.916505,36.3642857 143.531607,37.4357143 145.359223,38.2071429 C147.186839,39 149.120712,39.3857143 151.203344,39.3857143 C153.285976,39.3857143 155.219849,39 157.047465,38.2071429 C158.875081,37.4142857 160.468932,36.3642857 161.892772,35.0142857 C163.295361,33.6642857 164.421683,32.0785714 165.229234,30.2357143 C166.036785,28.4357143 166.461812,26.4214286 166.461812,24.1714286 L166.461812,24.1071429 C166.461812,21.8571429 166.058036,19.8428571 165.229234,18.0428571 C164.37918,16.2 163.27411,14.5928571 161.892772,13.2428571 Z M158.662567,27.3857143 C158.216289,28.3285714 157.642502,29.1214286 156.941208,29.8071429 C156.239913,30.45 155.411111,30.9642857 154.433549,31.3714286 C153.540992,31.7357143 152.499676,31.9285714 151.309601,31.9285714 C150.162028,31.9285714 149.09946,31.7357143 148.14315,31.3714286 C147.144336,30.9642857 146.294282,30.4285714 145.592988,29.8071429 C144.849191,29.1428571 144.296656,28.3285714 143.914131,27.3857143 C143.510356,26.3785714 143.297842,25.35 143.297842,24.3 L143.297842,24.1928571 C143.297842,23.1428571 143.510356,22.1142857 143.914131,21.1071429 C144.275404,20.1642857 144.849191,19.3714286 145.592988,18.6857143 C146.294282,18.0428571 147.144336,17.5285714 148.14315,17.1214286 C149.09946,16.7571429 150.162028,16.5642857 151.309601,16.5642857 C152.499676,16.5642857 153.540992,16.7571429 154.433549,17.1214286 C155.389859,17.5285714 156.239913,18.0642857 156.941208,18.6857143 C157.6,19.3285714 158.173786,20.1428571 158.662567,21.15 C159.108845,22.1142857 159.321359,23.1642857 159.321359,24.3 C159.34261,25.3928571 159.108845,26.4214286 158.662567,27.3857143 Z" id="Shape"></path>
                <polygon id="Path" points="185.97055 23.2928571 195.767421 9.66428571 187.07562 9.66428571 181.571521 17.4 176.04617 9.66428571 167.588133 9.66428571 177.385005 23.2928571 166.483063 38.5714286 175.111111 38.5714286 181.784034 29.1857143 188.456958 38.5714286 196.872492 38.5714286"></polygon>
                <path d="M120.155124,28.35 L112.759654,9.66428571 L106.596763,9.66428571 L106.596763,9.66428571 L98.7550162,9.66428571 L91.2320388,27.6214286 L83.7090615,9.66428571 L76.0798274,9.66428571 L87.5555556,36.7714286 C87.5555556,36.7714286 87.6405609,36.8142857 86.3229773,39.6642857 C83.8365696,45.0857143 79.2675297,44.0142857 77.1848975,43.3071429 L77.1848975,50.1857143 C78.1624595,50.4857143 79.9900755,50.8285714 81.9451996,50.8285714 C87.3855448,50.8285714 91.4445523,45.8142857 93.5484358,40.7785714 C101.730205,21.3 104.769147,14.0142857 105.91672,11.2928571 L117.031176,38.5714286 L123.491585,38.5714286 L135.286084,9.66428571 L127.550593,9.66428571 L120.155124,28.35 Z" id="Path"></path>
            </g>
        </g>
    </g>
</svg>